<svg width="28" height="27" viewBox="0 0 28 27" fill="none" xmlns="http://www.w3.org/2000/svg">
<path d="M17.8337 0.285156L14.72 3.39601L15.6395 4.31432L14.9175 5.03408L14.0037 4.11633L0.680851 17.438L3.25133 20.0102C4.85893 19.1866 6.42254 19.3502 7.34197 20.2697C8.26141 21.1891 8.42499 22.7516 7.60145 24.3592L10.1736 26.9313L23.4913 13.6136L22.5775 12.6942L23.2996 11.9722L24.219 12.886L27.327 9.77792L24.7549 7.20575C23.1473 8.0293 21.5848 7.86572 20.6653 6.94628C19.7459 6.02684 19.5823 4.46323 20.4059 2.85563L17.8337 0.285156ZM16.9199 5.58687L18.8321 7.50471L18.1101 8.22672L16.1979 6.30888L16.9199 5.58687ZM14.0037 6.51194L21.0997 13.608L12.0915 22.6218L4.98754 15.5202L13.6427 6.86731L14.0037 6.51194ZM14.0037 7.94469L6.42254 15.5202L12.0915 21.1891L19.6669 13.608L14.0037 7.94469ZM20.1069 8.77951L22.0248 10.6917L21.3027 11.4137L19.3849 9.50152L20.1069 8.77951Z" fill="#F9363A"/>
</svg>
