<svg width="24" height="21" viewBox="0 0 24 21" fill="none" xmlns="http://www.w3.org/2000/svg">
<path d="M8.18893 11.9199C10.9326 11.9199 13.0023 9.85016 13.0023 7.10652C13.0023 4.36287 10.9326 2.29311 8.18893 2.29311C5.44529 2.29311 3.37552 4.36287 3.37552 7.10652C3.37552 9.85016 5.44529 11.9199 8.18893 11.9199ZM8.18893 4.69981C9.60648 4.69981 10.5956 5.68897 10.5956 7.10652C10.5956 8.52407 9.60648 9.51322 8.18893 9.51322C6.77138 9.51322 5.78223 8.52407 5.78223 7.10652C5.78223 5.68897 6.77138 4.69981 8.18893 4.69981ZM9.39229 13.1233H6.98558C3.66794 13.1233 0.968815 15.8224 0.968815 19.14V20.3434H3.37552V19.14C3.37552 17.1497 4.99523 15.53 6.98558 15.53H9.39229C11.3826 15.53 13.0023 17.1497 13.0023 19.14V20.3434H15.409V19.14C15.409 15.8224 12.7099 13.1233 9.39229 13.1233ZM20.6605 0.651733L18.9589 2.35327C20.5486 3.94531 21.4258 6.0608 21.4258 8.30987C21.4258 10.5589 20.5486 12.6744 18.9589 14.2665L20.6605 15.968C22.7062 13.9211 23.8325 11.2015 23.8325 8.30987C23.8325 5.41821 22.7062 2.69864 20.6605 0.651733V0.651733Z" fill="#F9363A"/>
</svg>
