<svg width="27" height="26" viewBox="0 0 27 26" fill="none" xmlns="http://www.w3.org/2000/svg">
<path d="M0.968815 25.2972L17.8158 19.2804L6.98558 8.45025L0.968815 25.2972ZM13.4235 18.2937L4.93988 21.3261L7.97233 12.8425L13.4235 18.2937ZM16.0468 13.9014L22.7736 7.1747C22.9133 7.03462 23.0793 6.92348 23.262 6.84765C23.4448 6.77182 23.6407 6.73278 23.8385 6.73278C24.0364 6.73278 24.2323 6.77182 24.415 6.84765C24.5978 6.92348 24.7638 7.03462 24.9035 7.1747L25.6135 7.88467L26.889 6.60912L26.1791 5.89914C25.5572 5.28056 24.7157 4.93332 23.8385 4.93332C22.9614 4.93332 22.1199 5.28056 21.498 5.89914L14.7713 12.6259L16.0468 13.9014ZM10.6678 7.1025L9.95786 7.81247L11.2334 9.08803L11.9434 8.37805C12.562 7.75616 12.9092 6.91468 12.9092 6.03753C12.9092 5.16038 12.562 4.3189 11.9434 3.69701L11.2334 2.98703L9.95786 4.27462L10.6678 4.98459C11.2454 5.5622 11.2454 6.52489 10.6678 7.1025ZM19.0913 13.1193L17.178 15.0326L18.4535 16.3081L20.3669 14.3948C20.5066 14.2547 20.6726 14.1436 20.8553 14.0678C21.0381 13.9919 21.234 13.9529 21.4318 13.9529C21.6297 13.9529 21.8256 13.9919 22.0083 14.0678C22.1911 14.1436 22.3571 14.2547 22.4968 14.3948L24.4342 16.3322L25.7097 15.0567L23.7724 13.1193C23.1505 12.5007 22.309 12.1534 21.4318 12.1534C20.5547 12.1534 19.7132 12.5007 19.0913 13.1193ZM16.6846 5.89914L12.3646 10.2192L13.6401 11.4947L17.9602 7.1747C18.5787 6.55281 18.926 5.71133 18.926 4.83417C18.926 3.95702 18.5787 3.11554 17.9602 2.49365L16.0468 0.580322L14.7713 1.85588L16.6846 3.76921C17.2622 4.35885 17.2622 5.32153 16.6846 5.89914Z" fill="#F9363A"/>
</svg>
