<svg width="28" height="28" viewBox="0 0 28 28" fill="none" xmlns="http://www.w3.org/2000/svg">
<path d="M0.765462 26.2415C0.765462 26.9153 1.30697 27.4568 1.98085 27.4568H17.6124C18.2863 27.4568 18.8278 26.9153 18.8278 26.2415V25.0622H0.765462V26.2415ZM9.79061 10.6099C5.27804 10.6099 0.765462 13.0286 0.765462 17.8421H18.8158C18.8158 13.0286 14.3032 10.6099 9.79061 10.6099ZM3.91825 15.4354C5.25397 13.5702 8.09388 13.0166 9.79061 13.0166C11.4873 13.0166 14.3272 13.5702 15.663 15.4354H3.91825ZM0.765462 20.2488H18.8158V22.6555H0.765462V20.2488ZM21.2225 5.80853V0.995117H18.8158V5.80853H12.799L13.0758 8.21523H24.5798L22.8951 25.0622H21.2225V27.4689H23.2922C24.303 27.4689 25.1334 26.6867 25.2537 25.7L27.2392 5.80853H21.2225Z" fill="#F9363A"/>
</svg>
